<?xml version="1.0" encoding="UTF-8"?>
<svg xmlns="http://www.w3.org/2000/svg" xmlns:xlink="http://www.w3.org/1999/xlink" width="1920" height="1080" viewBox="0 0 1920 1080">
<defs>
<g>
<g id="glyph-0-0">
<path d="M 6.785156 -2.675781 C 7.238281 -2.675781 7.648438 -2.832031 8.007812 -3.148438 C 8.367188 -3.460938 8.546875 -3.855469 8.546875 -4.328125 C 8.546875 -4.804688 8.394531 -5.21875 8.089844 -5.570312 C 7.785156 -5.917969 7.425781 -6.09375 7.019531 -6.09375 C 6.761719 -6.09375 6.53125 -6.027344 6.328125 -5.898438 C 6.210938 -5.820312 6.089844 -5.710938 5.96875 -5.566406 C 5.769531 -5.335938 5.5625 -5.019531 5.339844 -4.613281 C 5.121094 -4.207031 5.011719 -3.980469 5.011719 -3.933594 C 5.011719 -3.890625 5.082031 -3.761719 5.222656 -3.546875 C 5.363281 -3.335938 5.519531 -3.164062 5.691406 -3.035156 C 5.847656 -2.917969 6.015625 -2.828125 6.199219 -2.765625 C 6.386719 -2.707031 6.578125 -2.675781 6.785156 -2.675781 Z M 3.9375 -5.382812 C 3.585938 -5.742188 3.148438 -5.925781 2.625 -5.925781 C 2.082031 -5.925781 1.664062 -5.761719 1.375 -5.4375 C 1.082031 -5.117188 0.9375 -4.726562 0.9375 -4.269531 C 0.9375 -3.792969 1.085938 -3.386719 1.378906 -3.050781 C 1.675781 -2.714844 2.015625 -2.546875 2.402344 -2.546875 C 2.738281 -2.546875 3.023438 -2.628906 3.261719 -2.792969 C 3.394531 -2.894531 3.539062 -3.046875 3.691406 -3.253906 C 3.808594 -3.410156 3.96875 -3.667969 4.167969 -4.019531 C 4.371094 -4.375 4.472656 -4.582031 4.472656 -4.640625 C 4.472656 -4.78125 4.292969 -5.027344 3.9375 -5.382812 Z M 6.730469 -6.6875 C 7.410156 -6.6875 7.925781 -6.4375 8.277344 -5.945312 C 8.632812 -5.449219 8.808594 -4.890625 8.808594 -4.269531 C 8.808594 -3.6875 8.617188 -3.148438 8.238281 -2.644531 C 7.859375 -2.144531 7.398438 -1.894531 6.863281 -1.894531 C 6.386719 -1.894531 5.984375 -2.050781 5.664062 -2.367188 C 5.34375 -2.679688 5.085938 -3.117188 4.890625 -3.671875 C 4.664062 -3.195312 4.4375 -2.832031 4.210938 -2.585938 C 3.789062 -2.125 3.296875 -1.894531 2.726562 -1.894531 C 2.09375 -1.894531 1.589844 -2.144531 1.21875 -2.644531 C 0.84375 -3.148438 0.65625 -3.675781 0.65625 -4.230469 C 0.65625 -4.96875 0.847656 -5.5625 1.222656 -6.011719 C 1.601562 -6.460938 2.074219 -6.6875 2.636719 -6.6875 C 3.300781 -6.6875 3.871094 -6.28125 4.347656 -5.476562 L 4.628906 -4.921875 C 4.886719 -5.429688 5.121094 -5.804688 5.339844 -6.042969 C 5.734375 -6.472656 6.199219 -6.6875 6.730469 -6.6875 Z "/>
</g>
</g>
</defs>
<g fill="rgb(100%, 100%, 0%)" fill-opacity="1">
<use xlink:href="#glyph-0-0" x="30" y="30"/>
</g>
</svg>
